<?xml version="1.0" encoding="UTF-8"?>
<svg width="40px" height="40px" viewBox="0 0 40 40" version="1.1" xmlns="http://www.w3.org/2000/svg" xmlns:xlink="http://www.w3.org/1999/xlink">
    <!-- Generator: Sketch 51.2 (57519) - http://www.bohemiancoding.com/sketch -->
    <title>Icon/blue/add</title>
    <desc>Created with Sketch.</desc>
    <defs></defs>
    <g id="Icon/blue/add" stroke="none" stroke-width="1" fill="none" fill-rule="evenodd">
        <g id="add" transform="translate(8.000000, 8.000000)" fill="#ffffff" fill-rule="nonzero">
            <path d="M23.6432623,10.7557537 L14.2441447,10.7557537 L14.2441447,1.35658521 C14.2441447,0.92841459 13.6627292,0 12.4999492,0 C11.3371691,0 10.7557537,0.928465417 10.7557537,1.35658521 L10.7557537,10.7558045 L1.35658521,10.7558045 C0.928465417,10.7557537 0,11.3371691 0,12.4998983 C0,13.6626276 0.928465417,14.2440938 1.35658521,14.2440938 L10.7558045,14.2440938 L10.7558045,23.6433131 C10.7558045,24.0713821 11.3371691,24.9998983 12.5,24.9998983 C13.6628309,24.9998983 14.2441955,24.0713821 14.2441955,23.6433131 L14.2441955,14.2440938 L23.6434148,14.2440938 C24.0714838,14.2440938 25,13.6627292 25,12.4998983 C25,11.3370675 24.0713821,10.7557537 23.6432623,10.7557537 Z" id="Shape"></path>
        </g>
    </g>
</svg>