<?xml version="1.0" encoding="UTF-8"?>
<svg width="40px" height="40px" viewBox="0 0 40 40" version="1.1" xmlns="http://www.w3.org/2000/svg" xmlns:xlink="http://www.w3.org/1999/xlink">
    <!-- Generator: Sketch 51.2 (57519) - http://www.bohemiancoding.com/sketch -->
    <title>Icon/blue/arrow/right Copy 3</title>
    <desc>Created with Sketch.</desc>
    <defs></defs>
    <g id="Icon/blue/arrow/right-Copy-3" stroke="none" stroke-width="1" fill="none" fill-rule="evenodd">
        <path d="M26.4962991,21.6386183 L15.9359726,31.5279459 C15.2642083,32.1573514 14.1750576,32.1573514 13.5036194,31.5279459 C12.8321269,30.8991002 12.8321269,29.8791731 13.5036194,29.2503784 L22.847878,20.4998346 C20.9643753,18.736016 19.5517483,17.4131521 18.609997,16.5312428 C17.6682457,15.6493335 15.9662104,14.0554513 13.5038912,11.7495961 C12.8323986,11.120496 12.8323986,10.1006707 13.5038912,9.47182509 C14.1753837,8.84272497 15.2644801,8.84272497 15.9362444,9.47182509 L26.4965708,19.3613054 C26.8323171,19.6758809 27,20.0877305 27,20.4997837 C27,20.9120405 26.831991,21.3241955 26.4962991,21.6386183 Z" id="Shape" fill="#ffffff" fill-rule="nonzero" transform="translate(20.000000, 20.500000) rotate(-90.000000) translate(-20.000000, -20.500000) "></path>
    </g>
</svg>